<?xml version="1.0" standalone="no"?>
<!DOCTYPE svg PUBLIC "-//W3C//DTD SVG 20010904//EN"
 "http://www.w3.org/TR/2001/REC-SVG-20010904/DTD/svg10.dtd">
<svg version="1.0" xmlns="http://www.w3.org/2000/svg"
 width="1152.000000pt" height="1280.000000pt" viewBox="0 0 1152.000000 1280.000000"
 preserveAspectRatio="xMidYMid meet">
<metadata>
Created by potrace 1.15, written by Peter Selinger 2001-2017
</metadata>
<g transform="translate(0.000000,1280.000000) scale(0.100000,-0.100000)"
fill="#000000" stroke="none">
<path d="M9533 12790 c-370 -47 -720 -203 -996 -444 -280 -245 -486 -608 -569
-1002 -20 -95 -23 -137 -23 -329 0 -173 4 -240 19 -315 10 -52 19 -104 20
-114 1 -15 -510 -314 -2464 -1443 -1356 -783 -2472 -1428 -2481 -1433 -12 -7
-35 7 -95 57 -234 196 -520 332 -834 395 -98 19 -146 23 -320 23 -174 0 -222
-4 -320 -23 -489 -99 -897 -366 -1162 -762 -359 -537 -405 -1206 -123 -1785
248 -510 710 -861 1285 -977 97 -19 147 -23 315 -23 215 0 278 8 463 56 256
67 510 199 707 368 l69 60 31 -19 c16 -10 1130 -653 2475 -1430 1345 -776
2448 -1414 2452 -1418 4 -4 -2 -55 -14 -112 -18 -89 -22 -139 -22 -330 -1
-198 2 -238 22 -334 83 -394 289 -756 569 -1002 454 -396 1063 -543 1640 -395
532 137 981 524 1195 1029 206 487 193 1016 -37 1488 -247 508 -709 861 -1277
976 -98 20 -143 23 -333 23 -190 0 -235 -3 -330 -23 -302 -63 -594 -202 -820
-391 l-60 -50 -45 25 c-25 14 -1145 660 -2489 1437 l-2443 1411 5 35 c3 20 13
83 22 141 21 135 16 410 -10 553 -11 59 -15 101 -9 106 8 7 4895 2830 4949
2859 18 9 34 0 117 -67 226 -180 480 -298 786 -363 93 -20 136 -23 327 -23
191 0 235 3 335 23 392 80 759 288 1006 569 518 593 598 1441 199 2108 -274
456 -722 761 -1255 852 -104 17 -380 25 -477 13z"/>
</g>
</svg>
